<svg width="100" height="98" viewBox="0 0 100 98" fill="none" xmlns="http://www.w3.org/2000/svg">
<rect x="2" y="2" width="96" height="96" rx="48" fill="#FAFAFA"/>
<path d="M50.0002 0C22.3894 0 0 22.3855 0 50.0002C0 72.092 14.3266 90.834 34.1933 97.4456C36.692 97.9083 37.6097 96.3609 37.6097 95.0402C37.6097 93.848 37.563 89.909 37.5418 85.7311C23.6313 88.7557 20.6961 79.8317 20.6961 79.8317C18.4217 74.0523 15.1446 72.5159 15.1446 72.5159C10.6083 69.4124 15.4865 69.476 15.4865 69.476C20.5075 69.8289 23.1513 74.6287 23.1513 74.6287C27.6108 82.2728 34.8482 80.0627 37.7014 78.7854C38.15 75.5534 39.4461 73.348 40.8758 72.0994C29.7703 70.8347 18.0954 66.5474 18.0954 47.3889C18.0954 41.9303 20.0487 37.4697 23.2474 33.9682C22.7282 32.7086 21.0169 27.6233 23.7317 20.7361C23.7317 20.7361 27.9304 19.3923 37.4853 25.8614C41.4734 24.7532 45.7509 24.198 50.0002 24.1791C54.2495 24.198 58.5301 24.7532 62.526 25.8614C72.0696 19.3923 76.2624 20.7361 76.2624 20.7361C78.9839 27.6233 77.2718 32.7086 76.7526 33.9682C79.9584 37.4697 81.8983 41.9299 81.8983 47.3889C81.8983 66.5929 70.2014 70.8218 59.0677 72.0594C60.861 73.6111 62.459 76.6541 62.459 81.3187C62.459 88.0086 62.4009 93.3932 62.4009 95.0402C62.4009 96.3707 63.3009 97.9299 65.8357 97.4389C85.6915 90.8199 100 72.0845 100 50.0002C100 22.3855 77.6137 0 50.0002 0Z" fill="#161614"/>
<path d="M18.7267 71.2265C18.6169 71.4747 18.2255 71.5492 17.8699 71.3791C17.5071 71.2159 17.3032 70.8771 17.4209 70.6277C17.5287 70.372 17.9201 70.3007 18.282 70.4724C18.6455 70.6352 18.8526 70.9771 18.7267 71.2265V71.2265ZM21.1862 73.4209C20.9478 73.6421 20.4815 73.5394 20.1651 73.19C19.838 72.8414 19.7769 72.3755 20.0188 72.1508C20.2647 71.93 20.7168 72.0331 21.0447 72.3822C21.3717 72.7347 21.4352 73.1978 21.1858 73.4213L21.1862 73.4209ZM22.8736 76.2287C22.567 76.4416 22.0658 76.242 21.7564 75.7973C21.4501 75.353 21.4501 74.8197 21.7631 74.606C22.0737 74.3923 22.567 74.5844 22.8807 75.0256C23.1866 75.4777 23.1866 76.0111 22.8732 76.2291L22.8736 76.2287ZM25.7269 79.4807C25.4528 79.7827 24.8692 79.7019 24.4418 79.2894C24.005 78.8862 23.883 78.3141 24.1579 78.0118C24.4351 77.709 25.0222 77.7941 25.4528 78.2031C25.8869 78.6055 26.0194 79.1819 25.7273 79.4807H25.7269ZM29.4146 80.5787C29.2942 80.9701 28.7319 81.1481 28.1656 80.9819C27.6001 80.8105 27.2299 80.3517 27.3441 79.956C27.4617 79.5619 28.0264 79.3764 28.597 79.5545C29.1616 79.725 29.5326 80.1803 29.415 80.5787H29.4146ZM33.6121 81.0442C33.6262 81.4567 33.1458 81.7987 32.5513 81.8061C31.9533 81.8191 31.4698 81.4854 31.4635 81.0799C31.4635 80.6634 31.9329 80.3246 32.5306 80.3148C33.125 80.3031 33.6121 80.6344 33.6121 81.0442V81.0442ZM37.7351 80.8862C37.8065 81.2885 37.3931 81.7018 36.803 81.8116C36.2226 81.9175 35.6853 81.6693 35.6112 81.2705C35.5391 80.8579 35.9602 80.445 36.5394 80.338C37.1308 80.2352 37.6598 80.4772 37.7351 80.8862" fill="#161614"/>
</svg>
