<svg width="253" height="253" viewBox="0 0 253 253" fill="none" xmlns="http://www.w3.org/2000/svg">
<circle cx="126.5" cy="126.5" r="126.5" fill="#160044"/>
<circle cx="126.5" cy="126.5" r="124.5" stroke="#FAFAFA" stroke-width="4"/>
<path d="M185.333 52C189.754 52 193.993 53.7559 197.118 56.8816C200.244 60.0072 202 64.2464 202 68.6667V185.333C202 189.754 200.244 193.993 197.118 197.118C193.993 200.244 189.754 202 185.333 202H68.6667C64.2464 202 60.0072 200.244 56.8816 197.118C53.7559 193.993 52 189.754 52 185.333V68.6667C52 64.2464 53.7559 60.0072 56.8816 56.8816C60.0072 53.7559 64.2464 52 68.6667 52H185.333ZM181.167 181.167V137C181.167 129.795 178.304 122.885 173.21 117.79C168.115 112.696 161.205 109.833 154 109.833C146.917 109.833 138.667 114.167 134.667 120.667V111.417H111.417V181.167H134.667V140.083C134.667 133.667 139.833 128.417 146.25 128.417C149.344 128.417 152.312 129.646 154.5 131.834C156.688 134.022 157.917 136.989 157.917 140.083V181.167H181.167ZM84.3333 98.3333C88.0464 98.3333 91.6073 96.8583 94.2328 94.2328C96.8583 91.6073 98.3333 88.0464 98.3333 84.3333C98.3333 76.5833 92.0833 70.25 84.3333 70.25C80.5982 70.25 77.016 71.7338 74.3749 74.3749C71.7338 77.016 70.25 80.5982 70.25 84.3333C70.25 92.0833 76.5833 98.3333 84.3333 98.3333ZM95.9167 181.167V111.417H72.8333V181.167H95.9167Z" fill="#FAFAFA"/>
</svg>
