<svg width="253" height="253" viewBox="0 0 253 253" fill="none" xmlns="http://www.w3.org/2000/svg">
<circle cx="126.5" cy="126.5" r="126.5" fill="#160044"/>
<circle cx="126.5" cy="126.5" r="124.5" stroke="#FAFAFA" stroke-width="4"/>
<path d="M194 176.667H177.333V103.75L127.333 135L77.3333 103.75V176.667H60.6667V76.6667H70.6667L127.333 112.083L184 76.6667H194M194 60H60.6667C51.4167 60 44 67.4167 44 76.6667V176.667C44 181.087 45.7559 185.326 48.8816 188.452C52.0072 191.577 56.2464 193.333 60.6667 193.333H194C198.42 193.333 202.659 191.577 205.785 188.452C208.911 185.326 210.667 181.087 210.667 176.667V76.6667C210.667 72.2464 208.911 68.0072 205.785 64.8816C202.659 61.7559 198.42 60 194 60Z" fill="#FAFAFA"/>
</svg>
