<svg width="25" height="25" viewBox="0 0 25 25" fill="none" xmlns="http://www.w3.org/2000/svg">
<path d="M22.625 19.5C23.1065 19.5002 23.5695 19.6857 23.918 20.018C24.2665 20.3503 24.4738 20.8039 24.4969 21.2849C24.52 21.7659 24.3573 22.2373 24.0423 22.6015C23.7273 22.9657 23.2843 23.1948 22.805 23.2413L22.625 23.25H2.625C2.14348 23.2498 1.68051 23.0643 1.33202 22.732C0.983527 22.3997 0.776235 21.9461 0.753095 21.4651C0.729954 20.9841 0.89274 20.5127 1.20772 20.1485C1.5227 19.7843 1.96573 19.5552 2.445 19.5087L2.625 19.5H22.625ZM22.625 10.75C23.1223 10.75 23.5992 10.9475 23.9508 11.2992C24.3025 11.6508 24.5 12.1277 24.5 12.625C24.5 13.1223 24.3025 13.5992 23.9508 13.9508C23.5992 14.3025 23.1223 14.5 22.625 14.5H2.625C2.12772 14.5 1.65081 14.3025 1.29917 13.9508C0.947544 13.5992 0.75 13.1223 0.75 12.625C0.75 12.1277 0.947544 11.6508 1.29917 11.2992C1.65081 10.9475 2.12772 10.75 2.625 10.75H22.625ZM22.625 2C23.1223 2 23.5992 2.19754 23.9508 2.54917C24.3025 2.90081 24.5 3.37772 24.5 3.875C24.5 4.37228 24.3025 4.84919 23.9508 5.20083C23.5992 5.55246 23.1223 5.75 22.625 5.75H2.625C2.12772 5.75 1.65081 5.55246 1.29917 5.20083C0.947544 4.84919 0.75 4.37228 0.75 3.875C0.75 3.37772 0.947544 2.90081 1.29917 2.54917C1.65081 2.19754 2.12772 2 2.625 2H22.625Z" fill="white"/>
</svg>
