<svg width="200" height="121" viewBox="0 0 200 121" fill="none" xmlns="http://www.w3.org/2000/svg">
<path d="M100 0C107.735 0 115.154 3.07291 120.624 8.54272C126.094 14.0125 129.167 21.4312 129.167 29.1667C129.167 36.9021 126.094 44.3208 120.624 49.7906C115.154 55.2604 107.735 58.3333 100 58.3333C92.2645 58.3333 84.8459 55.2604 79.3761 49.7906C73.9062 44.3208 70.8333 36.9021 70.8333 29.1667C70.8333 21.4312 73.9062 14.0125 79.3761 8.54272C84.8459 3.07291 92.2645 0 100 0ZM41.6667 20.8333C46.3333 20.8333 50.6667 22.0833 54.4167 24.3333C53.1667 36.25 56.6667 48.0833 63.8333 57.3333C59.6667 65.3333 51.3333 70.8333 41.6667 70.8333C35.0363 70.8333 28.6774 68.1994 23.989 63.511C19.3006 58.8226 16.6667 52.4637 16.6667 45.8333C16.6667 39.2029 19.3006 32.8441 23.989 28.1557C28.6774 23.4673 35.0363 20.8333 41.6667 20.8333ZM158.333 20.8333C164.964 20.8333 171.323 23.4673 176.011 28.1557C180.699 32.8441 183.333 39.2029 183.333 45.8333C183.333 52.4637 180.699 58.8226 176.011 63.511C171.323 68.1994 164.964 70.8333 158.333 70.8333C148.667 70.8333 140.333 65.3333 136.167 57.3333C143.432 47.9535 146.805 36.135 145.583 24.3333C149.333 22.0833 153.667 20.8333 158.333 20.8333ZM45.8333 106.25C45.8333 89 70.0833 75 100 75C129.917 75 154.167 89 154.167 106.25V120.833H45.8333V106.25ZM0 120.833V108.333C0 96.75 15.75 87 37.0833 84.1667C32.1667 89.8333 29.1667 97.6667 29.1667 106.25V120.833H0ZM200 120.833H170.833V106.25C170.833 97.6667 167.833 89.8333 162.917 84.1667C184.25 87 200 96.75 200 108.333V120.833Z" fill="#160044"/>
</svg>
