<svg width="57" height="58" viewBox="0 0 57 58" fill="none" xmlns="http://www.w3.org/2000/svg">
<path d="M32.8955 56.9453C31.419 58.8046 28.4252 57.7859 28.3897 55.4117L27.8694 20.6864H51.2187C55.4479 20.6864 57.8066 25.5712 55.1768 28.8833L32.8955 56.9453Z" fill="url(#paint0_linear_202_1809)"/>
<path d="M32.8955 56.9453C31.419 58.8046 28.4252 57.7859 28.3897 55.4117L27.8694 20.6864H51.2187C55.4479 20.6864 57.8066 25.5712 55.1768 28.8833L32.8955 56.9453Z" fill="url(#paint1_linear_202_1809)" fill-opacity="0.2"/>
<path d="M23.3995 1.06937C24.876 -0.790212 27.8698 0.228707 27.9054 2.60292L28.1333 37.3282H5.07631C0.847005 37.3282 -1.51175 32.4434 1.11815 29.1312L23.3995 1.06937Z" fill="#3ECF8E"/>
<defs>
<linearGradient id="paint0_linear_202_1809" x1="27.8694" y1="28.3859" x2="48.6214" y2="37.0892" gradientUnits="userSpaceOnUse">
<stop stop-color="#249361"/>
<stop offset="1" stop-color="#3ECF8E"/>
</linearGradient>
<linearGradient id="paint1_linear_202_1809" x1="18.6691" y1="15.789" x2="28.1331" y2="33.6044" gradientUnits="userSpaceOnUse">
<stop/>
<stop offset="1" stop-opacity="0"/>
</linearGradient>
</defs>
</svg>
