<svg width="253" height="253" viewBox="0 0 253 253" fill="none" xmlns="http://www.w3.org/2000/svg">
<circle cx="126.5" cy="126.5" r="126.5" fill="#160044"/>
<circle cx="126.5" cy="126.5" r="124.5" stroke="#FAFAFA" stroke-width="4"/>
<path d="M214.333 72.6667C207.917 75.5833 201 77.5 193.833 78.4167C201.167 74 206.833 67 209.5 58.5833C202.583 62.75 194.917 65.6667 186.833 67.3333C180.25 60.1667 171 56 160.5 56C140.917 56 124.917 72 124.917 91.75C124.917 94.5833 125.25 97.3333 125.833 99.9167C96.1667 98.4167 69.75 84.1667 52.1667 62.5833C49.0833 67.8333 47.3333 74 47.3333 80.5C47.3333 92.9167 53.5833 103.917 63.25 110.167C57.3333 110.167 51.8333 108.5 47 106V106.25C47 123.583 59.3333 138.083 75.6667 141.333C70.4227 142.768 64.9175 142.968 59.5833 141.917C61.8467 149.021 66.2795 155.237 72.2585 159.691C78.2375 164.145 85.4621 166.614 92.9167 166.75C80.2802 176.754 64.6166 182.161 48.5 182.083C45.6667 182.083 42.8333 181.917 40 181.583C55.8333 191.75 74.6667 197.667 94.8333 197.667C160.5 197.667 196.583 143.167 196.583 95.9167C196.583 94.3333 196.583 92.8333 196.5 91.25C203.5 86.25 209.5 79.9167 214.333 72.6667Z" fill="#FAFAFA"/>
</svg>
