<svg width="253" height="253" viewBox="0 0 253 253" fill="none" xmlns="http://www.w3.org/2000/svg">
<circle cx="126.5" cy="126.5" r="126.5" fill="white"/>
<path d="M126.5 0C56.6087 0 0 56.6088 0 126.5C0 182.476 36.2106 229.756 86.4944 246.517C92.8194 247.624 95.1912 243.829 95.1912 240.508C95.1912 237.504 95.0331 227.542 95.0331 216.948C63.25 222.798 55.0275 209.199 52.4975 202.084C51.0744 198.447 44.9075 187.22 39.5312 184.216C35.1037 181.844 28.7787 175.993 39.3731 175.835C49.335 175.677 56.4506 185.006 58.8225 188.801C70.2075 207.934 88.3919 202.558 95.6656 199.238C96.7725 191.015 100.093 185.481 103.73 182.318C75.5837 179.156 46.1725 168.245 46.1725 119.859C46.1725 106.102 51.0744 94.7169 59.1388 85.8619C57.8738 82.6994 53.4462 69.7331 60.4037 52.3394C60.4037 52.3394 70.9981 49.0188 95.1912 65.3056C105.311 62.4594 116.064 61.0363 126.816 61.0363C137.569 61.0363 148.321 62.4594 158.441 65.3056C182.634 48.8606 193.229 52.3394 193.229 52.3394C200.186 69.7331 195.759 82.6994 194.494 85.8619C202.558 94.7169 207.46 105.944 207.46 119.859C207.46 168.403 177.891 179.156 149.744 182.318C154.33 186.271 158.283 193.861 158.283 205.721C158.283 222.64 158.125 236.239 158.125 240.508C158.125 243.829 160.497 247.782 166.822 246.517C191.936 238.041 213.759 221.902 229.218 200.372C244.678 178.842 252.996 153.006 253 126.5C253 56.6088 196.391 0 126.5 0Z" fill="#160044"/>
<circle cx="126.5" cy="126.5" r="124.5" stroke="#FAFAFA" stroke-width="4"/>
</svg>
