<svg width="253" height="253" viewBox="0 0 253 253" fill="none" xmlns="http://www.w3.org/2000/svg">
<circle cx="126.5" cy="126.5" r="126.5" fill="#160044"/>
<circle cx="126.5" cy="126.5" r="124.5" stroke="#FAFAFA" stroke-width="4"/>
<path d="M92.3333 44H162.333C189 44 210.667 65.6667 210.667 92.3333V162.333C210.667 175.152 205.574 187.446 196.51 196.51C187.446 205.574 175.152 210.667 162.333 210.667H92.3333C65.6667 210.667 44 189 44 162.333V92.3333C44 79.5145 49.0922 67.2208 58.1565 58.1565C67.2208 49.0922 79.5145 44 92.3333 44ZM90.6667 60.6667C82.7102 60.6667 75.0796 63.8274 69.4535 69.4535C63.8274 75.0796 60.6667 82.7102 60.6667 90.6667V164C60.6667 180.583 74.0833 194 90.6667 194H164C171.956 194 179.587 190.839 185.213 185.213C190.839 179.587 194 171.956 194 164V90.6667C194 74.0833 180.583 60.6667 164 60.6667H90.6667ZM171.083 73.1667C173.846 73.1667 176.496 74.2641 178.449 76.2176C180.403 78.1711 181.5 80.8207 181.5 83.5833C181.5 86.346 180.403 88.9955 178.449 90.949C176.496 92.9025 173.846 94 171.083 94C168.321 94 165.671 92.9025 163.718 90.949C161.764 88.9955 160.667 86.346 160.667 83.5833C160.667 80.8207 161.764 78.1711 163.718 76.2176C165.671 74.2641 168.321 73.1667 171.083 73.1667ZM127.333 85.6667C138.384 85.6667 148.982 90.0565 156.796 97.8705C164.61 105.685 169 116.283 169 127.333C169 138.384 164.61 148.982 156.796 156.796C148.982 164.61 138.384 169 127.333 169C116.283 169 105.685 164.61 97.8705 156.796C90.0565 148.982 85.6667 138.384 85.6667 127.333C85.6667 116.283 90.0565 105.685 97.8705 97.8705C105.685 90.0565 116.283 85.6667 127.333 85.6667ZM127.333 102.333C120.703 102.333 114.344 104.967 109.656 109.656C104.967 114.344 102.333 120.703 102.333 127.333C102.333 133.964 104.967 140.323 109.656 145.011C114.344 149.699 120.703 152.333 127.333 152.333C133.964 152.333 140.323 149.699 145.011 145.011C149.699 140.323 152.333 133.964 152.333 127.333C152.333 120.703 149.699 114.344 145.011 109.656C140.323 104.967 133.964 102.333 127.333 102.333Z" fill="#FAFAFA"/>
</svg>
