<svg width="208" height="129" viewBox="0 0 208 129" fill="none" xmlns="http://www.w3.org/2000/svg">
<g filter="url(#filter0_d_106_3)">
<path d="M104 0C111.735 0 119.154 3.07291 124.624 8.54272C130.094 14.0125 133.167 21.4312 133.167 29.1667C133.167 36.9021 130.094 44.3208 124.624 49.7906C119.154 55.2604 111.735 58.3333 104 58.3333C96.2645 58.3333 88.8459 55.2604 83.3761 49.7906C77.9062 44.3208 74.8333 36.9021 74.8333 29.1667C74.8333 21.4312 77.9062 14.0125 83.3761 8.54272C88.8459 3.07291 96.2645 0 104 0ZM45.6667 20.8333C50.3333 20.8333 54.6667 22.0833 58.4167 24.3333C57.1667 36.25 60.6667 48.0833 67.8333 57.3333C63.6667 65.3333 55.3333 70.8333 45.6667 70.8333C39.0363 70.8333 32.6774 68.1994 27.989 63.511C23.3006 58.8226 20.6667 52.4637 20.6667 45.8333C20.6667 39.2029 23.3006 32.8441 27.989 28.1557C32.6774 23.4672 39.0363 20.8333 45.6667 20.8333ZM162.333 20.8333C168.964 20.8333 175.323 23.4672 180.011 28.1557C184.699 32.8441 187.333 39.2029 187.333 45.8333C187.333 52.4637 184.699 58.8226 180.011 63.511C175.323 68.1994 168.964 70.8333 162.333 70.8333C152.667 70.8333 144.333 65.3333 140.167 57.3333C147.432 47.9535 150.805 36.135 149.583 24.3333C153.333 22.0833 157.667 20.8333 162.333 20.8333ZM49.8333 106.25C49.8333 89 74.0833 75 104 75C133.917 75 158.167 89 158.167 106.25V120.833H49.8333V106.25ZM4 120.833V108.333C4 96.75 19.75 87 41.0833 84.1667C36.1667 89.8333 33.1667 97.6667 33.1667 106.25V120.833H4ZM204 120.833H174.833V106.25C174.833 97.6667 171.833 89.8333 166.917 84.1667C188.25 87 204 96.75 204 108.333V120.833Z" fill="#F97316"/>
</g>
<defs>
<filter id="filter0_d_106_3" x="0" y="0" width="208" height="128.833" filterUnits="userSpaceOnUse" color-interpolation-filters="sRGB">
<feFlood flood-opacity="0" result="BackgroundImageFix"/>
<feColorMatrix in="SourceAlpha" type="matrix" values="0 0 0 0 0 0 0 0 0 0 0 0 0 0 0 0 0 0 127 0" result="hardAlpha"/>
<feOffset dy="4"/>
<feGaussianBlur stdDeviation="2"/>
<feComposite in2="hardAlpha" operator="out"/>
<feColorMatrix type="matrix" values="0 0 0 0 0.976471 0 0 0 0 0.45098 0 0 0 0 0.0862745 0 0 0 0.4 0"/>
<feBlend mode="normal" in2="BackgroundImageFix" result="effect1_dropShadow_106_3"/>
<feBlend mode="normal" in="SourceGraphic" in2="effect1_dropShadow_106_3" result="shape"/>
</filter>
</defs>
</svg>
